<svg xmlns="http://www.w3.org/2000/svg" xmlns:xlink="http://www.w3.org/1999/xlink" fill="none" version="1.1" width="48" height="48" viewBox="0 0 48 48"><defs><clipPath id="master_svg0_1427_1690"><rect x="0" y="0" width="48" height="48" rx="0"/></clipPath></defs><g clip-path="url(#master_svg0_1427_1690)"><g><path d="M7.75736,3.7573600000000003C8.88258,2.63214,10.4087,2,12,2C12,2,28,2,28,2C28.5304,2,29.0392,2.210714,29.4142,2.585786C29.4142,2.585786,41.4142,14.5858,41.4142,14.5858C41.7892,14.9609,42,15.4696,42,16C42,16,42,40,42,40C42,41.5914,41.3678,43.1174,40.2426,44.2426C39.1174,45.3678,37.5914,46,36,46C36,46,12,46,12,46C10.4087,46,8.88258,45.3678,7.75736,44.2426C6.63214,43.1174,6,41.5914,6,40C6,40,6,8,6,8C6,6.4087,6.63214,4.88258,7.75736,3.7573600000000003C7.75736,3.7573600000000003,7.75736,3.7573600000000003,7.75736,3.7573600000000003ZM12,6C11.469560000000001,6,10.96086,6.21072,10.58578,6.58578C10.21072,6.96086,10,7.46956,10,8C10,8,10,40,10,40C10,40.5304,10.21072,41.0392,10.58578,41.4142C10.96086,41.7892,11.469560000000001,42,12,42C12,42,36,42,36,42C36.5304,42,37.0392,41.7892,37.4142,41.4142C37.7892,41.0392,38,40.5304,38,40C38,40,38,18,38,18C38,18,28,18,28,18C26.8954,18,26,17.104599999999998,26,16C26,16,26,6,26,6C26,6,12,6,12,6C12,6,12,6,12,6ZM30,8.828420000000001C30,8.828420000000001,35.1716,14,35.1716,14C35.1716,14,30,14,30,14C30,14,30,8.828420000000001,30,8.828420000000001C30,8.828420000000001,30,8.828420000000001,30,8.828420000000001ZM24,22C25.1046,22,26,22.8954,26,24C26,24,26,28,26,28C26,28,30,28,30,28C31.1046,28,32,28.8954,32,30C32,31.1046,31.1046,32,30,32C30,32,26,32,26,32C26,32,26,36,26,36C26,37.1046,25.1046,38,24,38C22.8954,38,22,37.1046,22,36C22,36,22,32,22,32C22,32,18,32,18,32C16.895400000000002,32,16,31.1046,16,30C16,28.8954,16.895400000000002,28,18,28C18,28,22,28,22,28C22,28,22,24,22,24C22,22.8954,22.8954,22,24,22C24,22,24,22,24,22Z" fill-rule="evenodd" fill="#9CA3AF" fill-opacity="1"/></g></g></svg>